<?xml version="1.0" encoding="utf-8"?>
<!-- Generator: Adobe Illustrator 26.3.1, SVG Export Plug-In . SVG Version: 6.00 Build 0)  -->
<svg version="1.1" fill="#FFC040" id="Icons" xmlns="http://www.w3.org/2000/svg" xmlns:xlink="http://www.w3.org/1999/xlink" x="0px" y="0px"
	 viewBox="0 0 141.7 141.7" style="enable-background:new 0 0 141.7 141.7;" xml:space="preserve">
<path d="M123.2,63.9h-10.4V53.4c0-5.8-4.7-10.5-10.5-10.5H67.4l-14-14H18.5C12.7,29,8,33.7,8,39.4v62.8c0,5.8,4.7,10.5,10.5,10.5
	h87.2c3.6,0,7-1.9,8.9-4.9L132,79.9C136.4,72.9,131.4,63.9,123.2,63.9z M18.5,40.8c0-0.7,0.6-1.3,1.3-1.3h29.2l14,14h37.9
	c0.7,0,1.3,0.6,1.3,1.3v9.2H41.2c-3.7,0-7.1,1.9-9,5.1L18.5,91.7V40.8z M105.7,102.3h-82l16.8-27.9h82.6L105.7,102.3z"/>
</svg>
