<?xml version="1.0" encoding="utf-8"?>
<!-- Generator: Adobe Illustrator 26.3.1, SVG Export Plug-In . SVG Version: 6.00 Build 0)  -->
<svg version="1.1" fill="#FFC040" id="Icons" xmlns="http://www.w3.org/2000/svg" xmlns:xlink="http://www.w3.org/1999/xlink" x="0px" y="0px"
	 viewBox="0 0 141.7 141.7" style="enable-background:new 0 0 141.7 141.7;" xml:space="preserve">
<g id="_icons">
	<g>
		<path d="M130.7,99.5l-43-76.9c-3.3-6.5-9.8-9.8-16.9-9.8c-7.2,0-13.7,3.3-16.9,9.8l-43,76.9c-3.3,5.9-3.3,13.7,0,19.6
			s9.8,9.8,16.9,9.8h86c7.2,0,13-3.9,16.9-9.8C134.6,113.2,134,106.1,130.7,99.5z M119.6,112.6c-0.7,0.7-2,3.3-5.9,3.3h-86
			c-3.3,0-5.2-2-5.9-3.3c-0.7-1.3-2-3.3,0-6.5l43-77.6c2-3.3,4.6-3.3,5.9-3.3c1.3,0,3.9,0,5.9,3.3l43,77.6
			C120.9,109.3,119.6,111.9,119.6,112.6z"/>
		<path d="M70.7,50.7c-3.9,0-6.5,2.6-6.5,6.5v19.6c0,3.9,2.6,6.5,6.5,6.5c3.9,0,6.5-2.6,6.5-6.5V57.2C77.3,53.3,74.7,50.7,70.7,50.7
			z"/>
		<circle cx="70.7" cy="96.3" r="6.5"/>
	</g>
</g>
</svg>
