<?xml version="1.0" encoding="utf-8"?>
<!-- Generator: Adobe Illustrator 26.3.1, SVG Export Plug-In . SVG Version: 6.00 Build 0)  -->
<svg version="1.1" fill="#FFFFFF" id="Icons" xmlns="http://www.w3.org/2000/svg" xmlns:xlink="http://www.w3.org/1999/xlink" x="0px" y="0px"
	 viewBox="0 0 141.7 141.7" style="enable-background:new 0 0 141.7 141.7;" xml:space="preserve">
<g id="bell_00000138551008755795714760000005400393870522126754_">
	<g>
		<g>
			<path d="M119.7,89.3l-10.3-10.4V53.3c0.3-19.6-14-36.5-33.4-39.5C54.9,11.1,35.4,26,32.7,47.1c-0.2,1.7-0.3,3.3-0.3,5v26.8
				L22,89.3c-3.6,3.7-3.6,9.7,0.1,13.3c1.7,1.7,4.1,2.7,6.5,2.7h19.3v2c0.6,12.1,10.8,21.5,22.9,21c12.1,0.5,22.4-8.9,22.9-21v-2
				h19.3c5.2,0,9.4-4.3,9.4-9.5C122.4,93.4,121.5,91,119.7,89.3z M82.3,107.2c-0.7,5.7-5.7,9.9-11.5,9.5c-5.8,0.4-10.8-3.8-11.5-9.5
				v-2h22.9V107.2z"/>
		</g>
	</g>
</g>
</svg>
