<?xml version="1.0" encoding="utf-8"?>
<!-- Generator: Adobe Illustrator 26.3.1, SVG Export Plug-In . SVG Version: 6.00 Build 0)  -->
<svg version="1.1" id="Icons" fill="#3C2E54" xmlns="http://www.w3.org/2000/svg" xmlns:xlink="http://www.w3.org/1999/xlink" x="0px" y="0px"
	 viewBox="0 0 141.7 141.7" style="enable-background:new 0 0 141.7 141.7;" xml:space="preserve">
<g id="calendar_00000016790200581862575720000017552090140627975554_">
	<g>
		<g>
			<path d="M110.2,18.4h-6.6v-6.6c0-3.6-2.9-6.6-6.6-6.6c-3.6,0-6.6,2.9-6.6,6.6v6.6H51.2v-6.6c0-3.6-2.9-6.6-6.6-6.6
				s-6.6,2.9-6.6,6.6v6.6h-6.6c-10.9,0-19.7,8.8-19.7,19.7v78.7c0,10.9,8.8,19.7,19.7,19.7h78.7c10.9,0,19.7-8.8,19.7-19.7V38.1
				C129.9,27.2,121.1,18.4,110.2,18.4z M44.6,103.6c-3.6,0-6.6-2.9-6.6-6.6c0-3.6,2.9-6.6,6.6-6.6s6.6,2.9,6.6,6.6
				C51.2,100.7,48.3,103.6,44.6,103.6z M97.1,103.6H70.9c-3.6,0-6.6-2.9-6.6-6.6c0-3.6,2.9-6.6,6.6-6.6h26.2c3.6,0,6.6,2.9,6.6,6.6
				C103.6,100.7,100.7,103.6,97.1,103.6z M116.8,64.3H25V38.1c0-3.6,2.9-6.6,6.6-6.6h6.6v6.6c0,3.6,2.9,6.6,6.6,6.6s6.6-2.9,6.6-6.6
				v-6.6h39.3v6.6c0,3.6,2.9,6.6,6.6,6.6c3.6,0,6.6-2.9,6.6-6.6v-6.6h6.6c3.6,0,6.6,2.9,6.6,6.6V64.3z"/>
		</g>
	</g>
</g>
</svg>
