<?xml version="1.0" encoding="utf-8"?>
<!-- Generator: Adobe Illustrator 26.3.1, SVG Export Plug-In . SVG Version: 6.00 Build 0)  -->
<svg version="1.1" fill="#5E448A" id="Icons" xmlns="http://www.w3.org/2000/svg" xmlns:xlink="http://www.w3.org/1999/xlink" x="0px" y="0px"
	 viewBox="0 0 141.7 141.7" style="enable-background:new 0 0 141.7 141.7;" xml:space="preserve">
<g id="message-circle_00000160872600494306336520000009011082436131211190_">
	<g>
		<g>
			<path d="M112.5,29C89.5,5.9,52.1,5.8,29,28.8C11.8,45.9,6.8,71.7,16.3,94c0.6,1.2,0.8,2.5,0.5,3.8l-5.2,25
				c-0.4,1.9,0.2,4,1.6,5.4c1.1,1.1,2.7,1.8,4.3,1.7h1.2l25.3-5.1c1.3-0.2,2.6,0,3.8,0.5c30,12.9,64.7-0.9,77.6-30.9
				c9.6-22.3,4.6-48.1-12.6-65.2L112.5,29z M47.1,76.7c-3.3,0-5.9-2.6-5.9-5.9c0-3.3,2.6-5.9,5.9-5.9s5.9,2.6,5.9,5.9
				C53,74.1,50.4,76.7,47.1,76.7z M70.7,76.7c-3.3,0-5.9-2.6-5.9-5.9c0-3.3,2.6-5.9,5.9-5.9c3.3,0,5.9,2.6,5.9,5.9
				C76.6,74.1,74,76.7,70.7,76.7z M94.3,76.7c-3.3,0-5.9-2.6-5.9-5.9c0-3.3,2.6-5.9,5.9-5.9c3.3,0,5.9,2.6,5.9,5.9
				C100.3,74.1,97.6,76.7,94.3,76.7z"/>
		</g>
	</g>
</g>
</svg>
