<?xml version="1.0" encoding="utf-8"?>
<!-- Generator: Adobe Illustrator 26.3.1, SVG Export Plug-In . SVG Version: 6.00 Build 0)  -->
<svg version="1.1" fill="#DF8747" id="Icons" xmlns="http://www.w3.org/2000/svg" xmlns:xlink="http://www.w3.org/1999/xlink" x="0px" y="0px"
	 viewBox="0 0 141.7 141.7" style="enable-background:new 0 0 141.7 141.7;" xml:space="preserve">
<g id="home_00000170995671973308664690000007326194854010119867_">
	<g>
		<g>
			<rect x="59.1" y="82.7" width="23.6" height="41.3"/>
			<path d="M120.6,60.1L75.1,13.6c-2.3-2.3-6-2.3-8.4,0c0,0,0,0,0,0L21.1,60.2c-2.2,2.2-3.5,5.3-3.4,8.4v49.5
				c0,6.3,4.9,11.5,11.2,11.8h18.4V76.8c0-3.3,2.6-5.9,5.9-5.9h35.4c3.3,0,5.9,2.6,5.9,5.9v53.1h18.4c6.3-0.3,11.2-5.5,11.2-11.8
				V68.6C124,65.5,122.8,62.4,120.6,60.1z"/>
		</g>
	</g>
</g>
</svg>
