<?xml version="1.0" encoding="utf-8"?>
<!-- Generator: Adobe Illustrator 26.3.1, SVG Export Plug-In . SVG Version: 6.00 Build 0)  -->
<svg version="1.1" id="Icons" xmlns="http://www.w3.org/2000/svg" xmlns:xlink="http://www.w3.org/1999/xlink" x="0px" y="0px"
	 viewBox="0 0 141.7 141.7" style="enable-background:new 0 0 141.7 141.7;" xml:space="preserve">
<g id="bookmark-outline_00000109005743889982691490000004357985049846717571_">
	<g>
		<g>
			<path d="M31.1,131.5c-3.7,0-6.7-3-6.7-6.7l-1-98.4c-0.3-8.4,6.2-15.4,14.5-15.8c0,0,0.1,0,0.1,0l64.4-0.3
				c8.4,0.1,15.1,7.1,15,15.5c0,0,0,0,0,0l0.9,98.4c0,2.4-1.2,4.6-3.3,5.8c-2.1,1.2-4.6,1.2-6.7,0l-38.3-21.2l-35.5,21.7
				C33.5,131.1,32.3,131.4,31.1,131.5z M69.8,94.2c1.2,0,2.3,0.3,3.4,0.8l31.6,17.5l-0.8-87c0-1.3-0.9-2.3-1.4-2.2L38.1,24
				c-0.5,0-1.3,0.9-1.3,2.2l0.8,86.6l28.7-17.7C67.4,94.6,68.6,94.3,69.8,94.2z"/>
		</g>
	</g>
</g>
</svg>
