<?xml version="1.0" encoding="utf-8"?>
<!-- Generator: Adobe Illustrator 26.3.1, SVG Export Plug-In . SVG Version: 6.00 Build 0)  -->
<svg version="1.1" id="Icons" xmlns="http://www.w3.org/2000/svg" xmlns:xlink="http://www.w3.org/1999/xlink" x="0px" y="0px"
	 viewBox="0 0 141.7 141.7" style="enable-background:new 0 0 141.7 141.7;" xml:space="preserve">
<g>
	<g>
		<path d="M101.6,133.2H40.1c-4,0-7.8-1.7-10.5-4.6c-2.5-2.8-3.7-6.4-3.2-10.1c2.4-21.3,12.1-30.1,19.2-36.5c5-4.5,7.4-6.9,7.4-11.1
			c0-4.1-2.4-6.5-7.3-10.9c-7.2-6.4-17-15.2-19.3-36.8c-0.4-3.6,0.8-7.3,3.3-10.1c2.6-2.9,6.4-4.6,10.4-4.6h61.4
			c4,0,7.8,1.7,10.4,4.6c2.5,2.8,3.7,6.4,3.3,10.1c-2.3,21.7-12.1,30.5-19.3,36.9c-4.9,4.4-7.3,6.7-7.3,10.7c0,4.1,2.4,6.4,7.3,10.9
			c7.1,6.5,16.9,15.3,19.3,36.7c0.4,3.6-0.8,7.3-3.2,10.1C109.4,131.5,105.6,133.2,101.6,133.2z M40.1,17.4c-1.5,0-2.8,0.6-3.8,1.6
			c-0.8,0.9-1.2,2-1.1,3.2c1.9,18.2,9.6,25,16.3,31c5.1,4.5,10.3,9.2,10.3,17.5c0,8.3-5.2,13.1-10.3,17.7
			c-6.7,6.1-14.3,13-16.4,30.9c-0.2,1.5,0.6,2.6,1,3.1c0.9,1.1,2.3,1.7,3.8,1.7h61.4c1.5,0,2.9-0.6,3.8-1.7c0.5-0.5,1.2-1.6,1-3.1
			c-2.1-18.1-9.7-25-16.5-31.1c-5-4.6-10.2-9.3-10.2-17.5C79.7,62.7,85,58,90,53.5c6.8-6.1,14.5-13,16.4-31.2
			c0.1-1.2-0.3-2.3-1.1-3.2c-0.9-1-2.3-1.6-3.8-1.6H40.1z"/>
	</g>
	<g>
		<path d="M95.1,119.8H46.7c-4.3,0-5.6-5-2.5-8.1c7.4-7.5,22.2-12.8,22.2-21.4V61.9c0-5.5-10.6-9.7-17.1-18.7
			c-1.1-1.5-1-3.6,1.8-3.6h39.7c2.3,0,2.8,2.1,1.8,3.5c-6.4,9-17.2,13.2-17.2,18.7v28.4c0,8.5,15.5,13.1,22.4,21.4
			C100.4,115,99.5,119.8,95.1,119.8z"/>
	</g>
</g>
</svg>
